<?xml version="1.0" encoding="UTF-8" standalone="no"?>
<svg
   xmlns:dc="http://purl.org/dc/elements/1.1/"
   xmlns:cc="http://creativecommons.org/ns#"
   xmlns:rdf="http://www.w3.org/1999/02/22-rdf-syntax-ns#"
   xmlns:svg="http://www.w3.org/2000/svg"
   xmlns="http://www.w3.org/2000/svg"
   xmlns:sodipodi="http://sodipodi.sourceforge.net/DTD/sodipodi-0.dtd"
   xmlns:inkscape="http://www.inkscape.org/namespaces/inkscape"
   inkscape:export-ydpi="68.30349"
   inkscape:export-xdpi="68.30349"
   inkscape:export-filename="/home/julimar/Julimar/meus_programas/projetoMMM/projeto_MM ultima_versao/app/imagens/app/mmm.png"
   sodipodi:docname="meusMapasMentais.svg"
   inkscape:version="1.0 (6e3e5246a0, 2020-05-07)"
   id="svg8"
   version="1.1"
   viewBox="0 0 210 297"
   height="297mm"
   width="210mm">
  <defs
     id="defs2" />
  <sodipodi:namedview
     inkscape:window-maximized="1"
     inkscape:window-y="27"
     inkscape:window-x="0"
     inkscape:window-height="668"
     inkscape:window-width="1366"
     showgrid="false"
     inkscape:document-rotation="0"
     inkscape:current-layer="layer1"
     inkscape:document-units="mm"
     inkscape:cy="452.25606"
     inkscape:cx="314.98356"
     inkscape:zoom="0.46902101"
     inkscape:pageshadow="2"
     inkscape:pageopacity="0.0"
     borderopacity="1.0"
     bordercolor="#666666"
     pagecolor="#ffffff"
     id="base" />
  <metadata
     id="metadata5">
    <rdf:RDF>
      <cc:Work
         rdf:about="">
        <dc:format>image/svg+xml</dc:format>
        <dc:type
           rdf:resource="http://purl.org/dc/dcmitype/StillImage" />
        <dc:title />
      </cc:Work>
    </rdf:RDF>
  </metadata>
  <g
     id="layer1"
     inkscape:groupmode="layer"
     inkscape:label="Camada 1">
    <text
       id="text839"
       y="147.08557"
       x="15.088313"
       style="font-style:normal;font-weight:normal;font-size:143.908px;line-height:1.25;font-family:sans-serif;fill:#00ff00;fill-opacity:1;stroke:#ff9955;stroke-width:3.59772"
       xml:space="preserve"><tspan
         style="fill:#00ff00;stroke:#ff9955;stroke-width:3.59772"
         y="147.08557"
         x="15.088313"
         id="tspan837"
         sodipodi:role="line" /></text>
    <g
       transform="matrix(0.89893978,0,0,0.89893978,5.7413855,3.7650736)"
       style="opacity:0.89603632;fill:#ffffff;stroke:#000000"
       id="g1019">
      <path
         sodipodi:nodetypes="csscscsc"
         inkscape:connector-curvature="0"
         id="path849-3"
         d="m 33.300603,122.12003 c -5.31962,8.30411 -9.498417,17.33633 -13.993401,26.12421 -2.76461,5.40493 -11.1049804,15.46048 -9.4994748,21.83118 3.3020498,13.10271 54.9217768,37.63693 67.0960838,28.15761 4.531858,-6.38725 1.660008,-33.63904 36.704039,-70.83312 8.67843,-9.21088 -10.52051,-18.80277 -27.11386,-28.081874 10.659038,8.019454 17.34542,16.867604 16.56716,21.814504 -4.397988,27.95511 -46.752042,23.72378 -69.760547,0.98749 z"
         style="fill:#ffffff;stroke:#000000;stroke-width:0.9;stroke-linecap:butt;stroke-linejoin:miter;stroke-miterlimit:4;stroke-dasharray:none;stroke-opacity:1" />
      <path
         style="fill:#ffffff;stroke:#000000;stroke-width:2;stroke-linecap:butt;stroke-linejoin:miter;stroke-miterlimit:4;stroke-dasharray:none;stroke-opacity:1"
         d="M 46.209237,99.957742 C 78.837263,67.738887 129.51257,130.44061 161.9929,140.76104 c 11.01121,3.49875 30.64643,4.13965 41.25494,-0.7215 -14.04168,26.69889 -19.72139,40.84903 -30.59898,68.72026 -1.81276,4.64478 -4.93151,8.82355 -7.01832,14.40852 -44.17981,0.8317 -76.928525,-49.96425 -104.040647,-66.5625 -16.035949,-9.03286 -35.487191,-8.60418 -51.824412,9.64369 2.662723,-16.22856 23.984573,-53.37206 36.443756,-66.291768 z"
         id="path843"
         inkscape:connector-curvature="0"
         sodipodi:nodetypes="cscscccc" />
      <path
         style="fill:#ffffff;stroke:#000000;stroke-width:2;stroke-linecap:butt;stroke-linejoin:miter;stroke-miterlimit:4;stroke-dasharray:none;stroke-opacity:1"
         d="m 124.85999,145.93938 c 5.02026,-11.91078 11.31694,-23.35855 17.21996,-34.8992 3.6306,-7.09798 8.72178,-23.301663 15.53188,-27.106155 14.00641,-7.824745 63.87313,20.136685 61.31713,39.455725 -3.63238,9.57419 -30.6847,29.59618 -47.33407,93.46486 -4.12311,15.81665 -23.62323,5.99293 -38.97125,-2.3754 9.96045,4.74119 28.26643,9.83925 32.50096,4.98593 23.92949,-27.42626 -6.97025,-70.89874 -40.26461,-73.52576 z"
         id="path849"
         inkscape:connector-curvature="0"
         sodipodi:nodetypes="csscscsc" />
    </g>
    <text
       id="text839-6-3"
       y="132.88594"
       x="14.266283"
       style="font-style:normal;font-variant:normal;font-weight:normal;font-stretch:normal;font-size:126.532px;line-height:1.25;font-family:Dyuthi;-inkscape-font-specification:Dyuthi;opacity:0.89603632;fill:#ffc680;fill-opacity:1;stroke:#7d2a06;stroke-width:3.1633;stroke-opacity:1;"
       xml:space="preserve"><tspan
         style="font-style:normal;font-variant:normal;font-weight:normal;font-stretch:normal;font-family:Dyuthi;-inkscape-font-specification:Dyuthi;fill:#ffc680;fill-opacity:1;stroke:#7d2a06;stroke-width:3.1633;stroke-opacity:1;"
         y="132.88594"
         x="14.266283"
         id="tspan837-7-5"
         sodipodi:role="line">M</tspan></text>
    <text
       xml:space="preserve"
       style="font-style:normal;font-variant:normal;font-weight:normal;font-stretch:normal;font-size:126.532px;line-height:1.25;font-family:Dyuthi;-inkscape-font-specification:Dyuthi;fill:#c99b00;fill-opacity:1;stroke:#754907;stroke-width:3.1633;stroke-opacity:1;opacity:0.89603632;"
       x="81.390167"
       y="211.21411"
       id="text839-6"><tspan
         sodipodi:role="line"
         id="tspan837-7"
         x="81.390167"
         y="211.21411"
         style="font-style:normal;font-variant:normal;font-weight:normal;font-stretch:normal;font-family:Dyuthi;-inkscape-font-specification:Dyuthi;fill:#c99b00;fill-opacity:1;stroke:#754907;stroke-width:3.1633;stroke-opacity:1;">M</tspan></text>
  </g>
</svg>
